<?xml version="1.0" standalone="no"?>
<!DOCTYPE svg PUBLIC "-//W3C//DTD SVG 20010904//EN"
 "http://www.w3.org/TR/2001/REC-SVG-20010904/DTD/svg10.dtd">
<svg version="1.0" xmlns="http://www.w3.org/2000/svg"
 width="300.000000pt" height="300.000000pt" viewBox="0 0 300.000000 300.000000"
 preserveAspectRatio="xMidYMid meet">
<metadata>
Created by potrace 1.11, written by Peter Selinger 2001-2013
</metadata>
<g transform="translate(0.000000,300.000000) scale(0.100000,-0.100000)"
fill="#000000" stroke="none">
<path d="M1612 2724 c-90 -37 -156 -125 -199 -263 -22 -69 -27 -106 -28 -186
0 -89 3 -107 28 -159 16 -35 24 -63 19 -68 -5 -5 -36 -16 -68 -24 -53 -14
-106 -39 -167 -78 -21 -14 -84 -27 -187 -41 -25 -3 -52 -8 -60 -10 -8 -2 -37
-6 -65 -10 -27 -3 -66 -8 -85 -10 -19 -3 -54 -7 -77 -10 -24 -3 -62 -7 -85
-10 -24 -3 -62 -8 -85 -10 -51 -4 -62 -10 -74 -42 -7 -19 -6 -32 7 -50 16 -25
18 -25 107 -18 50 4 94 8 97 10 3 1 37 6 75 9 39 4 97 11 130 16 33 5 84 12
114 16 59 7 58 10 15 -54 -42 -61 -106 -204 -146 -326 -33 -100 -41 -138 -44
-217 -4 -99 11 -178 42 -226 13 -21 11 -28 -31 -89 -81 -117 -131 -234 -165
-378 -32 -139 -34 -182 -11 -205 50 -50 92 -15 105 89 16 127 74 282 151 405
l46 75 40 -20 c48 -25 142 -36 191 -22 44 12 37 28 73 -163 3 -16 8 -76 12
-131 4 -80 2 -113 -11 -151 -9 -28 -14 -57 -10 -67 17 -45 85 -42 109 5 28 54
37 183 20 305 -8 63 -33 203 -40 229 -5 17 7 29 63 68 69 47 152 126 213 202
87 109 152 332 158 544 1 30 3 33 24 27 146 -42 329 -37 542 15 140 34 165 52
145 104 -12 31 -46 46 -80 33 -33 -13 -175 -46 -225 -53 -91 -13 -242 -13
-301 0 -72 15 -139 56 -160 97 -16 31 -14 33 36 42 111 19 235 159 308 346 68
176 58 293 -33 363 -46 36 -146 82 -208 95 -69 14 -187 12 -225 -4z m-48 -838
c56 -33 92 -79 104 -131 10 -47 6 -169 -8 -240 -5 -27 -12 -65 -15 -82 -8 -50
-48 -155 -80 -209 -16 -27 -66 -86 -111 -131 -145 -144 -295 -198 -399 -145
-22 11 -48 28 -57 39 -88 97 -57 340 75 598 79 154 177 267 272 312 67 32 153
28 219 -11z"/>
</g>
</svg>
